<svg width="360" height="360" viewBox="0 0 360 360" fill="none" xmlns="http://www.w3.org/2000/svg">
<path d="M278.841 73.8521C280.689 73.811 280.689 73.811 282.575 73.769C283.667 73.7405 284.76 73.712 285.886 73.6826C290.698 74.1733 293.942 75.8834 297.25 79.3752C305.341 91.5113 298.618 112.239 296.762 125.86C296.437 128.259 296.111 130.659 295.786 133.059C295.106 138.065 294.422 143.071 293.736 148.077C292.86 154.473 292 160.87 291.144 167.269C290.479 172.217 289.803 177.163 289.123 182.109C288.801 184.467 288.484 186.825 288.17 189.184C287.731 192.485 287.275 195.783 286.815 199.081C286.691 200.043 286.567 201.004 286.439 201.994C285.07 211.562 282.701 219.546 274.961 225.66C271.564 227.981 269.107 229 265 229C264.604 229.893 264.604 229.893 264.199 230.805C262.953 233.086 261.761 234.422 259.813 236.125C259.262 236.623 258.712 237.12 258.145 237.633C251.929 241.596 245.328 241.21 238.231 240.977C237.196 240.952 236.161 240.927 235.094 240.901C231.792 240.819 228.49 240.723 225.188 240.625C223.011 240.567 220.835 240.51 218.658 240.453C217.593 240.426 216.527 240.398 215.429 240.369C211.257 240.265 207.084 240.172 202.912 240.078C200.155 240.004 197.401 239.897 194.646 239.782C193.044 239.735 191.442 239.69 189.84 239.645C189.134 239.605 188.428 239.565 187.7 239.523C182.11 239.413 179.258 241.382 175.375 245.063C173.735 246.64 173.735 246.64 172.531 248.121C170.413 250.53 168.323 252.571 165.875 254.625C159.279 260.351 152.83 266.242 146.375 272.125C144.584 273.751 142.793 275.376 141 277C140.231 277.699 139.461 278.398 138.668 279.117C137.973 279.739 137.278 280.36 136.563 281C135.667 281.805 135.667 281.805 134.754 282.625C132.924 284.06 131.088 284.991 129 286C128.866 274.952 129.244 264.021 130 253C130.097 251.531 130.193 250.063 130.289 248.594C130.521 245.062 130.759 241.531 131 238C129.833 237.975 128.665 237.95 127.462 237.924C123.026 237.828 118.59 237.729 114.154 237.628C112.254 237.585 110.354 237.543 108.453 237.503C102.897 237.384 97.3417 237.243 91.7865 237.078C89.9134 237.026 88.0402 236.98 86.1668 236.942C83.4386 236.884 80.7119 236.802 77.9845 236.715C77.1669 236.703 76.3493 236.691 75.507 236.679C70.2438 236.478 67.2127 235.425 63.0001 232C60.1666 228.878 59.0265 225.475 58.9512 221.27C59.83 209.994 61.5412 198.867 63.2735 187.695C63.6015 185.56 63.9291 183.424 64.2566 181.289C64.9403 176.839 65.6284 172.389 66.3194 167.941C67.2022 162.253 68.072 156.564 68.9382 150.874C69.61 146.473 70.2897 142.074 70.9717 137.676C71.2957 135.578 71.617 133.48 71.9355 131.382C72.3816 128.45 72.8386 125.52 73.2984 122.59C73.4263 121.734 73.5542 120.878 73.686 119.996C74.8232 112.876 76.4377 106.082 81.4376 100.625C82.3019 99.6545 82.3019 99.6545 83.1837 98.6642C86.0746 96.0158 88.0603 95.0002 92.0001 95.0002C92.1651 94.2989 92.3301 93.5977 92.5001 92.8752C95.0652 87.9588 99.7833 84.7391 105 83.0002C107.52 82.7858 110.023 82.6192 112.548 82.4911C113.709 82.4273 113.709 82.4273 114.894 82.3621C117.488 82.2206 120.082 82.085 122.676 81.9494C124.522 81.8499 126.369 81.75 128.215 81.6498C133.209 81.38 138.203 81.1156 143.197 80.8523C147.347 80.633 151.498 80.4109 155.648 80.1889C166.294 79.6193 176.941 79.0559 187.587 78.4959C194.65 78.1243 201.712 77.7505 208.774 77.3752C217.793 76.8961 226.812 76.4217 235.831 75.9512C239.172 75.777 242.513 75.6012 245.854 75.4243C249.778 75.2168 253.702 75.0129 257.626 74.8119C259.042 74.7388 260.459 74.6644 261.875 74.5888C267.529 74.2873 273.184 74.0702 278.841 73.8521Z" fill="#FE4D3D"/>
<path d="M215.625 115.688C220.809 120.735 220.809 120.735 221.174 125.056C221.202 131.776 220.347 138.14 219.188 144.75C218.083 151.212 216.999 157.651 216.277 164.168C214.095 183.806 214.095 183.806 208 190C205.689 191.767 203.694 192.809 201 194C200.01 194.495 200.01 194.495 199 195C188.458 195.803 188.458 195.803 184 193C178.535 187.426 177.777 183.82 177.84 176.211C178.022 172.568 178.627 169.221 179.43 165.672C180.891 158.825 181.697 151.819 182.465 144.864C184.729 124.555 184.729 124.555 193 117C199.25 112.275 208.729 112.478 215.625 115.688Z" fill="#FFF9F9"/>
<path d="M92.0001 95C91.8043 96.1965 91.8043 96.1965 91.6046 97.4172C90.9844 101.215 90.3664 105.014 89.7501 108.812C89.6372 109.508 89.5242 110.204 89.4079 110.921C87.8156 120.749 86.3043 130.585 84.8751 140.438C83.6492 148.873 82.2747 157.246 80.6485 165.613C79.6067 171.055 78.7733 176.514 78.0001 182C77.876 182.877 77.7519 183.754 77.6241 184.658C77.1995 187.687 76.7859 190.718 76.3751 193.75C76.2397 194.721 76.1044 195.691 75.9649 196.692C74.0565 208.834 74.0565 208.834 78.0001 220C81.4957 223.57 84.0907 224.467 89.0781 224.58C90.2345 224.577 90.2345 224.577 91.4142 224.574C92.2244 224.588 93.0347 224.603 93.8696 224.617C96.4549 224.659 99.0395 224.674 101.625 224.688C105.013 224.726 108.401 224.775 111.789 224.824C112.598 224.834 113.406 224.844 114.239 224.854C120.202 224.94 126.07 225.336 132 226C132 229.63 132 233.26 132 237C127.786 238.054 124.071 238.047 119.781 237.914C118.975 237.893 118.168 237.873 117.337 237.851C114.724 237.782 112.112 237.704 109.5 237.625C108.617 237.599 107.734 237.573 106.824 237.547C102.444 237.418 98.0639 237.284 93.6842 237.144C89.851 237.023 86.0179 236.93 82.1837 236.848C80.4349 236.796 78.6862 236.742 76.9376 236.688C76.1861 236.677 75.4345 236.667 74.6602 236.657C69.7113 236.459 66.8182 235.116 63.0001 232C60.1666 228.878 59.0265 225.475 58.9512 221.27C59.83 209.994 61.5412 198.867 63.2735 187.695C63.6015 185.56 63.9291 183.424 64.2566 181.289C64.9403 176.839 65.6284 172.389 66.3194 167.94C67.2022 162.253 68.072 156.563 68.9382 150.873C69.61 146.473 70.2897 142.074 70.9717 137.676C71.2957 135.578 71.617 133.48 71.9355 131.382C72.3816 128.45 72.8386 125.52 73.2984 122.59C73.4263 121.734 73.5542 120.878 73.686 119.996C74.8232 112.876 76.4377 106.081 81.4376 100.625C82.3019 99.6543 82.3019 99.6543 83.1837 98.6641C86.0746 96.0156 88.0603 95 92.0001 95Z" fill="#4759FC"/>
<path d="M112 118C116.062 117.884 120.124 117.813 124.188 117.75C125.338 117.716 126.488 117.683 127.674 117.648C128.786 117.636 129.897 117.623 131.043 117.609C132.064 117.588 133.085 117.567 134.137 117.546C137.749 118.119 139.389 119.496 142 122C144.702 127.404 143.831 136.475 141.988 142.074C140.019 146.031 137.693 149.502 135 153C135.975 154.019 135.975 154.019 136.969 155.059C140.691 160.449 139.624 166.702 139 173C137.355 180.46 135.165 187.06 128.73 191.603C125.621 193.194 123.731 193.349 120.262 193.293C119.195 193.283 118.128 193.274 117.029 193.264C115.927 193.239 114.824 193.213 113.688 193.188C112.565 193.174 111.443 193.16 110.287 193.146C107.524 193.111 104.762 193.062 102 193C102.578 180.937 104.562 169.102 106.438 157.188C107.064 153.181 107.688 149.175 108.309 145.168C108.457 144.209 108.606 143.25 108.759 142.262C109.998 134.192 111.057 126.11 112 118Z" fill="#FFFAF9"/>
<path d="M259.273 114.735C261.562 116.412 262.668 117.441 264 120C264.362 123.259 264.282 126.477 264.187 129.75C264.167 131.082 264.167 131.082 264.146 132.442C264.111 134.628 264.057 136.814 264 139C260.04 139 256.08 139 252 139C252.097 134.41 252.097 134.41 252.195 129.821C252.3 126.863 252.3 126.863 250 125C246.001 124.539 246.001 124.539 242.402 126.043C240.302 128.974 240.003 132.136 239.5 135.625C239.32 136.788 239.32 136.788 239.137 137.975C238.092 144.948 237.189 151.942 236.312 158.938C236.181 159.967 236.049 160.995 235.914 162.055C235.114 168.736 234.843 175.274 235 182C237.64 182 240.28 182 243 182C245.783 177.165 246.651 173.063 247.187 167.625C247.269 166.889 247.351 166.153 247.435 165.395C247.634 163.598 247.818 161.799 248 160C246.35 160 244.7 160 243 160C242.916 155.724 243.153 152.237 244 148C249.94 148 255.88 148 262 148C261.526 151.828 261.05 155.655 260.558 159.481C260.196 162.335 259.875 165.187 259.597 168.051C258.7 176.423 257.613 184.63 251.222 190.684C246.375 194.302 242.545 195.169 236.625 195.25C234.943 195.289 234.943 195.289 233.226 195.328C229.644 194.964 227.863 194.141 225 192C220.242 185.956 220.294 180.492 221 173C221.489 169.818 222.036 166.655 222.655 163.495C223.599 158.593 224.312 153.699 224.914 148.742C225.153 146.815 225.153 146.815 225.397 144.85C225.71 142.286 226.008 139.72 226.29 137.153C227.382 128.393 229.318 122.089 236 116.125C243.639 110.714 251.006 110.448 259.273 114.735Z" fill="#FFF8F9"/>
<path d="M153 117C156.63 117 160.26 117 164 117C163.184 123.456 162.366 129.911 161.546 136.366C161.268 138.557 160.991 140.748 160.714 142.939C157.116 171.42 157.116 171.42 155 182C160.94 182 166.88 182 173 182C172.67 185.96 172.34 189.92 172 194C161.77 194 151.54 194 141 194C141.66 189.71 142.32 185.42 143 181C143.479 177.834 143.956 174.667 144.43 171.5C144.556 170.66 144.682 169.819 144.811 168.953C145.604 163.66 146.392 158.366 147.179 153.072C147.697 149.588 148.216 146.105 148.735 142.621C148.999 140.845 149.263 139.069 149.526 137.293C149.914 134.674 150.304 132.056 150.695 129.438C150.812 128.646 150.929 127.854 151.049 127.039C151.56 123.631 152.163 120.347 153 117Z" fill="#FFF8F6"/>
<path d="M207.938 226.625C209.327 226.647 210.716 226.667 212.105 226.686C215.908 226.743 219.709 226.835 223.51 226.936C226.112 227.003 228.715 227.063 231.317 227.12C242.546 227.37 253.773 227.665 265 228C264.226 231.647 263.206 233.144 260.375 235.625C259.397 236.511 259.397 236.511 258.398 237.414C252.108 241.573 245.493 241.227 238.23 241.012C237.195 240.989 236.16 240.967 235.094 240.943C232.904 240.893 230.715 240.838 228.526 240.779C225.237 240.689 221.948 240.614 218.658 240.541C206.423 240.256 194.214 239.779 182 239C186.102 234.02 186.102 234.02 188 232C188.772 231.104 189.544 230.208 190.34 229.285C195.289 225.297 201.934 226.45 207.938 226.625Z" fill="#3893FB"/>
<path d="M206 125C207.671 126.168 207.671 126.168 209 128C209.158 130.507 209.158 130.507 208.836 133.567C208.658 135.309 208.658 135.309 208.476 137.087C208.319 138.378 208.162 139.67 208 141C207.917 141.69 207.834 142.379 207.749 143.089C207.198 147.601 206.592 152.104 205.953 156.605C205.622 158.958 205.307 161.312 204.992 163.666C204.78 165.183 204.566 166.699 204.352 168.215C204.261 168.909 204.17 169.603 204.077 170.318C203.41 174.862 202.364 179.637 199 183C195.563 183.188 195.563 183.188 192 183C190 181 190 181 189.759 179.181C189.849 173.428 190.431 167.871 191.313 162.188C191.59 160.348 191.867 158.508 192.145 156.668C192.287 155.736 192.43 154.803 192.577 153.842C192.998 151.019 193.384 148.193 193.762 145.364C193.886 144.463 194.01 143.562 194.138 142.634C194.374 140.919 194.602 139.203 194.822 137.486C195.453 133.033 196.193 129.667 199 126C201.549 124.726 203.174 124.725 206 125Z" fill="#FF4F47"/>
<path d="M117 159C118.258 158.959 119.516 158.918 120.812 158.875C121.52 158.852 122.228 158.829 122.957 158.805C125 159 125 159 128 161C129.334 167.784 127.799 176.301 124 182C121.617 182.293 121.617 182.293 118.875 182.188C117.965 182.16 117.055 182.133 116.117 182.105C115.419 182.071 114.72 182.036 114 182C114.796 174.302 115.878 166.656 117 159Z" fill="#FF6734"/>
<path d="M121 129C122.458 128.946 123.916 128.907 125.375 128.875C126.187 128.852 126.999 128.829 127.836 128.805C130 129 130 129 132 131C132.237 136.353 131.766 141.407 129.438 146.25C125.848 148.827 123.351 148.363 119 148C119.491 141.634 119.997 135.307 121 129Z" fill="#FF613D"/>
</svg>
